<svg width="20" height="20" viewBox="0 0 20 20" fill="none" xmlns="http://www.w3.org/2000/svg">
<path fill-rule="evenodd" clip-rule="evenodd" d="M13.3318 10C13.3318 9.07986 13.0063 8.29427 12.3553 7.64323C11.7044 6.99218 10.9189 6.66667 9.99883 6.66667C9.0788 6.66667 8.29331 6.99218 7.64234 7.64323C6.99137 8.29427 6.66589 9.07986 6.66589 10C6.66589 10.9201 6.99137 11.7057 7.64234 12.3568C8.29331 13.0078 9.0788 13.3333 9.99883 13.3333C10.9189 13.3333 11.7044 13.0078 12.3553 12.3568C13.0063 11.7057 13.3318 10.9201 13.3318 10ZM15.1284 10C15.1284 11.4236 14.6294 12.6345 13.6312 13.6328C12.6331 14.6311 11.4223 15.1302 9.99883 15.1302C8.57538 15.1302 7.3646 14.6311 6.36645 13.6328C5.36829 12.6345 4.86922 11.4236 4.86922 10C4.86922 8.57638 5.36829 7.36546 6.36645 6.36719C7.3646 5.36892 8.57538 4.86979 9.99883 4.86979C11.4223 4.86979 12.6331 5.36892 13.6312 6.36719C14.6294 7.36546 15.1284 8.57638 15.1284 10ZM16.5345 4.66146C16.5345 4.99132 16.4174 5.27344 16.183 5.50781C15.9487 5.74219 15.6666 5.85938 15.3368 5.85938C15.0069 5.85938 14.7248 5.74219 14.4905 5.50781C14.2561 5.27344 14.139 4.99132 14.139 4.66146C14.139 4.3316 14.2561 4.04948 14.4905 3.8151C14.7248 3.58073 15.0069 3.46354 15.3368 3.46354C15.6666 3.46354 15.9487 3.58073 16.183 3.8151C16.4174 4.04948 16.5345 4.3316 16.5345 4.66146ZM9.99883 1.79688C9.93808 1.79688 9.60609 1.7947 9.00286 1.79036C8.39963 1.78602 7.94178 1.78602 7.62932 1.79036C7.31685 1.7947 6.89807 1.80773 6.37295 1.82943C5.84784 1.85113 5.40085 1.89453 5.03197 1.95964C4.66308 2.02474 4.35279 2.10503 4.10108 2.20052C3.66711 2.37413 3.28521 2.62587 2.95538 2.95573C2.62556 3.28559 2.37386 3.66753 2.20026 4.10156C2.10479 4.3533 2.0245 4.66363 1.95941 5.03255C1.89431 5.40148 1.85091 5.84852 1.82921 6.3737C1.80751 6.89887 1.7945 7.31771 1.79016 7.63021C1.78582 7.94271 1.78582 8.4006 1.79016 9.00391C1.7945 9.60721 1.79667 9.93924 1.79667 10C1.79667 10.0608 1.7945 10.3928 1.79016 10.9961C1.78582 11.5994 1.78582 12.0573 1.79016 12.3698C1.7945 12.6823 1.80751 13.1011 1.82921 13.6263C1.85091 14.1515 1.89431 14.5985 1.95941 14.9674C2.0245 15.3364 2.10479 15.6467 2.20026 15.8984C2.37386 16.3325 2.62556 16.7144 2.95538 17.0443C3.28521 17.3741 3.66711 17.6259 4.10108 17.7995C4.35279 17.895 4.66308 17.9753 5.03197 18.0404C5.40085 18.1055 5.84784 18.1489 6.37295 18.1706C6.89807 18.1923 7.31685 18.2053 7.62932 18.2096C7.94178 18.214 8.39963 18.214 9.00286 18.2096C9.60609 18.2053 9.93808 18.2031 9.99883 18.2031C10.0596 18.2031 10.3916 18.2053 10.9948 18.2096C11.598 18.214 12.0559 18.214 12.3684 18.2096C12.6808 18.2053 13.0996 18.1923 13.6247 18.1706C14.1498 18.1489 14.5968 18.1055 14.9657 18.0404C15.3346 17.9753 15.6449 17.895 15.8966 17.7995C16.3306 17.6259 16.7125 17.3741 17.0423 17.0443C17.3721 16.7144 17.6238 16.3325 17.7974 15.8984C17.8929 15.6467 17.9732 15.3364 18.0383 14.9674C18.1034 14.5985 18.1468 14.1515 18.1685 13.6263C18.1902 13.1011 18.2032 12.6823 18.2075 12.3698C18.2119 12.0573 18.2119 11.5994 18.2075 10.9961C18.2032 10.3928 18.201 10.0608 18.201 10C18.201 9.93924 18.2032 9.60721 18.2075 9.00391C18.2119 8.4006 18.2119 7.94271 18.2075 7.63021C18.2032 7.31771 18.1902 6.89887 18.1685 6.3737C18.1468 5.84852 18.1034 5.40148 18.0383 5.03255C17.9732 4.66363 17.8929 4.3533 17.7974 4.10156C17.6238 3.66753 17.3721 3.28559 17.0423 2.95573C16.7125 2.62587 16.3306 2.37413 15.8966 2.20052C15.6449 2.10503 15.3346 2.02474 14.9657 1.95964C14.5968 1.89453 14.1498 1.85113 13.6247 1.82943C13.0996 1.80773 12.6808 1.7947 12.3684 1.79036C12.0559 1.78602 11.598 1.78602 10.9948 1.79036C10.3916 1.7947 10.0596 1.79688 9.99883 1.79688ZM19.9977 10C19.9977 11.9879 19.976 13.3637 19.9326 14.1276C19.8458 15.9332 19.3077 17.3307 18.3182 18.3203C17.3287 19.3099 15.9313 19.8481 14.126 19.9349C13.3622 19.9783 11.9865 20 9.99883 20C8.01121 20 6.63551 19.9783 5.87171 19.9349C4.06636 19.8481 2.66896 19.3099 1.67949 18.3203C0.690019 17.3307 0.151892 15.9332 0.0650966 14.1276C0.0216986 13.3637 0 11.9879 0 10C0 8.01214 0.0216986 6.63629 0.0650966 5.8724C0.151892 4.06683 0.690019 2.66928 1.67949 1.67969C2.66896 0.690099 4.06636 0.15191 5.87171 0.0651042C6.63551 0.0217012 8.01121 0 9.99883 0C11.9865 0 13.3622 0.0217012 14.126 0.0651042C15.9313 0.15191 17.3287 0.690099 18.3182 1.67969C19.3077 2.66928 19.8458 4.06683 19.9326 5.8724C19.976 6.63629 19.9977 8.01214 19.9977 10Z" fill="#8D8D8E"/>
</svg>
