<svg width="137" height="22" viewBox="0 0 137 22" fill="none" xmlns="http://www.w3.org/2000/svg">
<path fill-rule="evenodd" clip-rule="evenodd" d="M17.4477 4.20356H0.298462V3.02499C0.298462 2.82856 0.298462 2.63213 0.336807 2.4357H17.4477V4.20356Z" fill="#A6A8AB"/>
<rect x="0.298462" y="2.70566" width="4.29468" height="3.89689" fill="#A6A8AB"/>
<path fill-rule="evenodd" clip-rule="evenodd" d="M0.298462 8.87857V7.11072H14.9464C16.1351 7.11072 17.0554 7.975 17.4388 8.87857" fill="#A6A8AB"/>
<path fill-rule="evenodd" clip-rule="evenodd" d="M16.8571 20.5806H0.298462V17.6393H17.4388C17.4388 17.6393 17.4388 18.4516 17.4388 18.8179C17.3717 19.4073 17.3043 19.871 16.8571 20.5806Z" fill="#808184"/>
<path fill-rule="evenodd" clip-rule="evenodd" d="M17.1704 19.9964C16.6719 21.175 15.79 21.7643 14.5629 21.7643H0.298462V19.9964H17.1704Z" fill="#808184"/>
<path fill-rule="evenodd" clip-rule="evenodd" d="M17.4005 1.84644H0.528564C1.02705 0.667868 1.909 0.0785828 3.13605 0.0785828H17.4005V1.84644Z" fill="#A6A8AB"/>
<path fill-rule="evenodd" clip-rule="evenodd" d="M17.4371 10.9215V12.375H3.8264C3.74971 12.375 3.74971 12.375 3.59633 12.375C3.28957 12.375 3.02115 12.3358 2.94446 12.2965C2.9828 12.2572 3.63467 12.0608 3.71137 12.0215C4.13316 11.9036 4.55496 11.7465 5.01511 11.6286C5.85871 11.4322 6.7023 11.3143 7.5459 11.1572C7.85266 11.1179 8.61957 11.0393 9.53986 11C10.0767 10.9608 10.6519 10.9608 11.1887 10.9608C12.0323 10.9215 12.5308 10.9215 13.1443 10.9215C13.4511 10.9215 14.1413 10.9215 14.6781 10.9215C16.5954 10.9215 17.3623 10.9215 17.3623 10.9215" fill="#808184"/>
<rect x="13.1444" y="11.5082" width="4.29468" height="3.90323" fill="#808184"/>
<path fill-rule="evenodd" clip-rule="evenodd" d="M17.4376 16.3036H13.1444V14.4179L17.4376 14.4179V16.3036Z" fill="#808184"/>
<rect x="19.5096" y="0.117859" width="4.29468" height="1.76786" fill="#A6A8AB"/>
<rect x="19.5096" y="2.4357" width="4.29468" height="1.76786" fill="#A6A8AB"/>
<rect x="19.5096" y="4.125" width="4.29468" height="1.76786" fill="#A6A8AB"/>
<rect x="19.5096" y="7.11072" width="4.29468" height="1.76786" fill="#A6A8AB"/>
<rect x="19.5096" y="10.9215" width="4.29468" height="10.284" fill="#808184"/>
<path fill-rule="evenodd" clip-rule="evenodd" d="M31.8183 7.11072L30.5529 8.87857H25.1462L26.4116 7.11072H31.8183Z" fill="#A6A8AB"/>
<path fill-rule="evenodd" clip-rule="evenodd" d="M34.038 4.08572L31.7504 7.24583L26.5146 6.93019L28.559 4.08572H34.038Z" fill="#A6A8AB"/>
<path fill-rule="evenodd" clip-rule="evenodd" d="M35.3991 2.12903L32.9298 5.63594L27.9124 4.96774L30.1633 1.82388L35.3991 2.12903Z" fill="#A6A8AB"/>
<path fill-rule="evenodd" clip-rule="evenodd" d="M36.8033 0.117859L35.5763 1.84643H30.1312L31.3966 0.117859H36.8033Z" fill="#A6A8AB"/>
<rect x="38.5288" y="0.117859" width="4.29467" height="1.76786" fill="#A6A8AB"/>
<rect x="38.5288" y="1.01639" width="4.29467" height="7.44528" fill="#A6A8AB"/>
<rect x="38.5288" y="4.125" width="4.29467" height="1.76786" fill="#A6A8AB"/>
<rect x="38.5288" y="7.11072" width="4.29467" height="1.76786" fill="#A6A8AB"/>
<rect x="38.5288" y="10.9215" width="4.29467" height="1.76786" fill="#808184"/>
<rect x="38.5288" y="13.1214" width="4.29467" height="1.76786" fill="#808184"/>
<rect x="38.5288" y="14.7322" width="4.29467" height="1.76786" fill="#808184"/>
<rect x="38.5288" y="18.3857" width="4.29467" height="1.76786" fill="#808184"/>
<rect x="38.5288" y="17.7965" width="4.29467" height="1.76786" fill="#808184"/>
<rect x="38.5288" y="12.8997" width="4.29467" height="8.86463" fill="#808184"/>
<rect x="44.5107" y="0.117859" width="4.29469" height="1.76786" fill="#A6A8AB"/>
<rect x="44.5107" y="1.72607" width="4.29469" height="6.02592" fill="#A6A8AB"/>
<rect x="44.5107" y="4.125" width="4.29469" height="1.76786" fill="#A6A8AB"/>
<rect x="44.5107" y="7.11072" width="4.29469" height="1.76786" fill="#A6A8AB"/>
<rect x="44.5107" y="10.9215" width="4.29469" height="7.44528" fill="#808184"/>
<rect x="44.5107" y="13.1214" width="4.29469" height="1.76786" fill="#808184"/>
<rect x="44.5107" y="14.7322" width="4.29469" height="1.76786" fill="#808184"/>
<path fill-rule="evenodd" clip-rule="evenodd" d="M60.2326 19.4071L44.5877 19.4851C44.514 19.1073 44.5033 17.6393 44.5033 17.6393H60.2326V19.4071Z" fill="#808184"/>
<path fill-rule="evenodd" clip-rule="evenodd" d="M60.2326 20.5806C60.2326 20.5806 50.1565 20.5567 45.1185 20.5806C45.0055 20.5812 44.7794 20.1093 44.7794 20.1093C44.7027 19.9914 44.5877 19.6036 44.5877 19.4464L44.543 19.0536L60.2326 19.0536V20.5806Z" fill="#808184"/>
<path fill-rule="evenodd" clip-rule="evenodd" d="M60.2324 21.7643H47.3867C46.1213 21.7643 45.2393 21.175 44.7408 19.9964H60.2324V21.7643Z" fill="#808184"/>
<rect x="61.9196" y="0.117859" width="4.29467" height="1.76786" fill="#A6A8AB"/>
<rect x="61.9196" y="2.86786" width="4.29467" height="1.76786" fill="#A6A8AB"/>
<rect x="61.9196" y="4.20358" width="4.29467" height="1.76786" fill="#A6A8AB"/>
<rect x="61.9196" y="7.11072" width="4.29467" height="1.76786" fill="#A6A8AB"/>
<rect x="61.9196" y="10.9215" width="4.29467" height="6.7356" fill="#808184"/>
<rect x="61.9196" y="13.1214" width="4.29467" height="1.76786" fill="#808184"/>
<rect x="61.9196" y="14.7322" width="4.29467" height="1.76786" fill="#808184"/>
<path fill-rule="evenodd" clip-rule="evenodd" d="M77.6412 20.4195C77.6412 20.4195 67.4682 20.5457 62.3817 20.4195C62.3117 20.4178 62.1716 20.0358 62.1716 20.0358C62.0949 19.8786 61.9963 19.5643 61.9579 19.3286L61.9121 18.2286L77.6412 18.2286V20.4195Z" fill="#808184"/>
<path fill-rule="evenodd" clip-rule="evenodd" d="M77.6412 21.7643H64.7955C63.5301 21.7643 62.6481 21.175 62.1497 19.9964H77.6412V21.7643Z" fill="#808184"/>
<path fill-rule="evenodd" clip-rule="evenodd" d="M96.2387 1.84644H79.3284V0.0785828H93.5929C94.8583 0.117868 95.7402 0.667868 96.2387 1.84644Z" fill="#A6A8AB"/>
<path fill-rule="evenodd" clip-rule="evenodd" d="M79.3284 4.20356V2.4357H96.3921C96.4304 2.63213 96.4744 2.9738 96.4744 3.17023V4.20356H79.3284Z" fill="#A6A8AB"/>
<rect x="79.3284" y="4.04645" width="4.29468" height="1.76786" fill="#A6A8AB"/>
<rect x="79.3284" y="7.11072" width="4.29468" height="1.76786" fill="#A6A8AB"/>
<rect x="79.3284" y="10.9215" width="4.29468" height="9.57431" fill="#808184"/>
<rect x="79.3284" y="13.1214" width="4.29468" height="1.76786" fill="#808184"/>
<rect x="79.3284" y="14.7322" width="4.29468" height="1.76786" fill="#808184"/>
<path fill-rule="evenodd" clip-rule="evenodd" d="M96.2387 19.9964C95.7402 21.175 94.8582 21.7643 93.6312 21.7643H79.3313V19.9964H96.2387Z" fill="#808184"/>
<rect x="92.1742" y="4.04645" width="4.29469" height="1.76786" fill="#A6A8AB"/>
<rect x="92.1742" y="7.11072" width="4.29469" height="1.76786" fill="#A6A8AB"/>
<rect x="92.1742" y="10.9215" width="4.29469" height="6.65674" fill="#808184"/>
<rect x="92.1742" y="13.1214" width="4.29469" height="1.76786" fill="#808184"/>
<path fill-rule="evenodd" clip-rule="evenodd" d="M96.4689 17.3669H92.1742V14.7322H96.4689V17.3669Z" fill="#808184"/>
<path fill-rule="evenodd" clip-rule="evenodd" d="M102.873 19.9964L102.182 21.7643H97.3125L98.0027 19.9964H102.873Z" fill="#808184"/>
<path fill-rule="evenodd" clip-rule="evenodd" d="M103.754 17.6393L103.102 19.4071H98.2325L98.9228 17.6393H103.754Z" fill="#808184"/>
<path fill-rule="evenodd" clip-rule="evenodd" d="M103.371 18.7L102.681 20.4286H97.8491L98.501 18.7H103.371Z" fill="#808184"/>
<path fill-rule="evenodd" clip-rule="evenodd" d="M116.907 17.05H99.153L100.073 14.7322L100.541 13.4839H114.987L115.987 14.7322L116.907 17.05Z" fill="#808184"/>
<path fill-rule="evenodd" clip-rule="evenodd" d="M116.102 14.9679H99.9584L100.764 12.9643H115.297L116.102 14.9679Z" fill="#808184"/>
<path fill-rule="evenodd" clip-rule="evenodd" d="M106.4 10.9215L105.748 12.6893H100.878L101.569 10.9215H106.4Z" fill="#808184"/>
<path fill-rule="evenodd" clip-rule="evenodd" d="M107.435 7.11072L106.745 8.87857H101.875L102.566 7.11072H107.435Z" fill="#A6A8AB"/>
<path fill-rule="evenodd" clip-rule="evenodd" d="M113.264 6.52145H108.394L108.011 5.57859L107.666 6.52145H102.796L103.486 4.79288H112.574L113.264 6.52145Z" fill="#A6A8AB"/>
<path fill-rule="evenodd" clip-rule="evenodd" d="M112.612 4.9107L111.547 4.96773L103.98 5.6774L103.448 4.9107L104.406 2.4357H111.653L112.612 4.9107Z" fill="#A6A8AB"/>
<path fill-rule="evenodd" clip-rule="evenodd" d="M111.423 1.84643H104.636L105.327 0.117859H110.733L111.423 1.84643Z" fill="#A6A8AB"/>
<path fill-rule="evenodd" clip-rule="evenodd" d="M114.146 8.87857H109.315L108.624 7.11072H113.494L114.146 8.87857Z" fill="#A6A8AB"/>
<path fill-rule="evenodd" clip-rule="evenodd" d="M115.181 12.6893H110.35L109.66 10.9215H114.529L115.181 12.6893Z" fill="#808184"/>
<path fill-rule="evenodd" clip-rule="evenodd" d="M117.827 19.4071H112.957L112.267 17.6393H117.137L117.827 19.4071Z" fill="#808184"/>
<path fill-rule="evenodd" clip-rule="evenodd" d="M118.173 20.2715H113.303L112.612 18.5429H117.482L118.173 20.2715Z" fill="#808184"/>
<path fill-rule="evenodd" clip-rule="evenodd" d="M118.747 21.7643H113.877L113.187 19.9964H118.057L118.747 21.7643Z" fill="#808184"/>
<path fill-rule="evenodd" clip-rule="evenodd" d="M136.501 1.84644H119.591V0.0785828H133.856C135.121 0.117868 136.003 0.667868 136.501 1.84644Z" fill="#A6A8AB"/>
<path fill-rule="evenodd" clip-rule="evenodd" d="M136.729 4.20356H119.552V2.4357H136.616C136.655 2.63213 136.655 2.82856 136.655 3.02499L136.729 3.54837V4.20356Z" fill="#A6A8AB"/>
<path fill-rule="evenodd" clip-rule="evenodd" d="M119.548 3.92856H123.886V5.93213H119.548V3.92856Z" fill="#A6A8AB"/>
<path fill-rule="evenodd" clip-rule="evenodd" d="M136.501 7.11072C136.003 8.28929 135.121 8.87857 133.894 8.87857H119.549V7.11072H136.501Z" fill="#A6A8AB"/>
<path fill-rule="evenodd" clip-rule="evenodd" d="M136.654 12.6107L119.591 12.65V10.8821H133.932C135.198 10.9214 136.233 11.4714 136.654 12.6107Z" fill="#808184"/>
<rect x="119.591" y="12.3725" width="4.29468" height="4.60657" fill="#808184"/>
<rect x="119.591" y="14.7322" width="4.29468" height="1.76786" fill="#808184"/>
<rect x="119.591" y="17.6393" width="4.29468" height="1.76786" fill="#808184"/>
<rect x="119.591" y="18.5429" width="4.29468" height="1.76786" fill="#808184"/>
<rect x="119.591" y="19.9964" width="4.29468" height="1.76786" fill="#808184"/>
<path fill-rule="evenodd" clip-rule="evenodd" d="M136.693 5.93214C136.693 6.12857 136.693 6.325 136.655 6.52142H132.437V3.65357L136.731 3.40399V5.93214H136.693Z" fill="#A6A8AB"/>
<path fill-rule="evenodd" clip-rule="evenodd" d="M136.694 14.7322H132.433V12.9643L136.694 12.9643C136.733 13.0822 136.733 13.2875 136.733 13.4839V14.7322H136.694Z" fill="#808184"/>
<rect x="132.437" y="14.575" width="4.29466" height="1.76786" fill="#808184"/>
<rect x="132.437" y="17.6393" width="4.29466" height="1.76786" fill="#808184"/>
<rect x="132.437" y="18.425" width="4.29466" height="1.76786" fill="#808184"/>
<rect x="132.437" y="19.9964" width="4.29466" height="1.76786" fill="#808184"/>
<path fill-rule="evenodd" clip-rule="evenodd" d="M17.4005 0.117859H3.13602C2.36911 0.117859 1.6789 0.392859 1.14206 0.982144C0.56688 1.57143 0.298462 2.23929 0.298462 3.025V3.18214H17.4388V0.117859H17.4005Z" fill="#A6A8AB"/>
<path fill-rule="evenodd" clip-rule="evenodd" d="M36.8419 0.117859H31.3969L29.2112 3.18214H34.6562L36.8419 0.117859Z" fill="#A6A8AB"/>
<rect x="19.5096" y="0.117859" width="4.29468" height="8.7417" fill="#A6A8AB"/>
<rect x="38.5288" y="0.117859" width="4.29467" height="3.06429" fill="#A6A8AB"/>
<rect x="44.5107" y="0.117859" width="4.29469" height="3.06429" fill="#A6A8AB"/>
<rect x="61.9196" y="0.117859" width="4.29467" height="3.06429" fill="#A6A8AB"/>
<path fill-rule="evenodd" clip-rule="evenodd" d="M96.469 3.025C96.469 2.23929 96.2006 1.53214 95.6254 0.982144C95.0502 0.392859 94.3983 0.117859 93.6314 0.117859H79.3669V3.18214H96.469V3.025Z" fill="#A6A8AB"/>
<path fill-rule="evenodd" clip-rule="evenodd" d="M110.733 0.117859H105.327L104.1 3.18214H111.922L110.733 0.117859Z" fill="#A6A8AB"/>
<path fill-rule="evenodd" clip-rule="evenodd" d="M135.888 0.942869C135.313 0.353583 134.661 0.0785828 133.894 0.0785828L119.556 0.0785828V3.45715H136.738V2.98573C136.642 1.90234 136.425 1.53215 135.888 0.942869Z" fill="#A6A8AB"/>
<path fill-rule="evenodd" clip-rule="evenodd" d="M5.55177 8.01431V7.11074H4.93825C4.70818 7.11074 4.5548 6.91431 4.5548 6.71788V5.65717H0.298462V7.62145V8.01431H5.16832H5.55177Z" fill="#A6A8AB"/>
<rect x="19.5096" y="5.65717" width="4.29468" height="2.35714" fill="#A6A8AB"/>
<path fill-rule="evenodd" clip-rule="evenodd" d="M31.2048 8.01431L32.892 5.65717H27.447L25.7598 8.01431H31.2048Z" fill="#A6A8AB"/>
<rect x="38.5288" y="5.65717" width="4.29467" height="2.35714" fill="#A6A8AB"/>
<rect x="44.5107" y="5.65717" width="4.29469" height="2.35714" fill="#A6A8AB"/>
<rect x="61.9196" y="5.65717" width="4.29467" height="2.35714" fill="#A6A8AB"/>
<rect x="79.3284" y="1.37939" width="4.29468" height="6.63492" fill="#A6A8AB"/>
<rect x="92.1742" y="3.21271" width="4.29469" height="4.80159" fill="#A6A8AB"/>
<path fill-rule="evenodd" clip-rule="evenodd" d="M107.09 8.01431L107.972 5.65717H103.141L102.221 8.01431H107.09Z" fill="#A6A8AB"/>
<path fill-rule="evenodd" clip-rule="evenodd" d="M108.969 8.01431H113.839L112.919 5.65717H108.049L108.969 8.01431Z" fill="#A6A8AB"/>
<path fill-rule="evenodd" clip-rule="evenodd" d="M132.437 7.11074H123.886V5.65717L119.545 5.65717V8.01431H135.926C136.118 7.77859 136.726 7.03217 136.726 6.24645C136.726 6.12859 136.726 5.65717 136.726 5.65717L132.437 5.65717V7.11074Z" fill="#A6A8AB"/>
<rect x="19.5096" y="12.0607" width="4.29468" height="1.57143" fill="#808184"/>
<rect x="38.5288" y="12.0607" width="4.29467" height="1.57143" fill="#808184"/>
<rect x="44.5107" y="12.0607" width="4.29469" height="1.57143" fill="#808184"/>
<rect x="61.9196" y="12.0607" width="4.29467" height="1.57143" fill="#808184"/>
<rect x="92.1742" y="12.0607" width="4.29469" height="1.57143" fill="#808184"/>
<rect x="79.3284" y="12.0607" width="4.29468" height="1.57143" fill="#808184"/>
<path fill-rule="evenodd" clip-rule="evenodd" d="M110.465 13.0036H105.595L105.94 12.0607H101.109L100.495 13.6321H115.565L114.951 12.0607H110.081L110.465 13.0036Z" fill="#808184"/>
<path fill-rule="evenodd" clip-rule="evenodd" d="M123.886 13.6321V12.65H132.437V13.6321H136.732V13.2393C136.732 13.0036 136.693 12.8071 136.655 12.6107C136.655 12.6107 136.426 12.0645 136.312 12.0645C130.738 12.0645 119.591 12.0645 119.591 12.0645L119.591 13.6321H123.886Z" fill="#808184"/>
<path fill-rule="evenodd" clip-rule="evenodd" d="M13.1445 13.9148V17.6786H8.84985V17.9536H17.4363V13.9148H13.1445Z" fill="#808184"/>
<path fill-rule="evenodd" clip-rule="evenodd" d="M23.8043 13.2393H19.5096V14.9679H23.8043V14.3786V13.2393Z" fill="#808184"/>
<rect x="19.5096" y="14.8893" width="4.29468" height="1.41429" fill="#808184"/>
<rect x="19.5096" y="17.9536" width="4.29468" height="1.45357" fill="#808184"/>
<rect x="19.5096" y="18.7" width="4.29468" height="1.45357" fill="#808184"/>
<rect x="19.5096" y="19.9964" width="4.29468" height="1.76786" fill="#808184"/>
<path fill-rule="evenodd" clip-rule="evenodd" d="M31.1281 21.7643H36.5732L30.5529 10.9215H25.1462L31.1281 21.7643Z" fill="#808184"/>
<path fill-rule="evenodd" clip-rule="evenodd" d="M23.8043 16.1465H19.5096V18.0715H23.8043V16.1465Z" fill="#808184"/>
<rect x="38.5288" y="16.1465" width="4.29467" height="1.84643" fill="#808184"/>
<path fill-rule="evenodd" clip-rule="evenodd" d="M48.8054 17.6786V16.1465H44.5107V17.9536H60.2323V17.6786H48.8054Z" fill="#808184"/>
<path fill-rule="evenodd" clip-rule="evenodd" d="M66.2142 17.6786V16.1465H61.9196V18.2286H77.6412V17.6786H66.2142Z" fill="#808184"/>
<path fill-rule="evenodd" clip-rule="evenodd" d="M66.2142 17.9536V16.4215H61.9196V18.2286H77.6412V17.9536H66.2142Z" fill="#808184"/>
<path fill-rule="evenodd" clip-rule="evenodd" d="M66.2142 18.0321V16.5H61.9196V18.425H77.6412V18.0321H66.2142Z" fill="#808184"/>
<path fill-rule="evenodd" clip-rule="evenodd" d="M99.4981 16.1465L98.8079 17.9536H103.639L104.023 17.05H112.037L112.382 17.9536H117.252L116.523 16.1465H99.4981Z" fill="#808184"/>
<rect x="132.437" y="16.1465" width="4.29466" height="1.84643" fill="#808184"/>
<rect x="119.591" y="16.1465" width="4.29468" height="1.84643" fill="#808184"/>
<path fill-rule="evenodd" clip-rule="evenodd" d="M92.174 19.4072H96.392C96.4631 19.1613 96.4631 19.0143 96.4631 18.8179V17.9536H92.1356V19.4072H92.174Z" fill="#808184"/>
<path fill-rule="evenodd" clip-rule="evenodd" d="M92.1356 20.5807H95.7254L96.2249 20.0357C96.2624 19.9588 96.3302 19.7531 96.3985 19.4185C96.4233 19.2973 96.464 19.0042 96.464 19.0042L92.1356 18.5429V20.5807Z" fill="#808184"/>
<rect x="79.3284" y="17.7965" width="4.29468" height="1.45357" fill="#808184"/>
<rect x="79.3284" y="18.8179" width="4.29468" height="1.45357" fill="#808184"/>
<rect x="92.1742" y="16.5786" width="4.29469" height="1.53214" fill="#808184"/>
<rect x="79.3284" y="16.3036" width="4.29468" height="1.53214" fill="#808184"/>
<rect x="79.3284" y="17.6393" width="4.29468" height="0.314285" fill="#808184"/>
<rect x="92.1742" y="17.6393" width="4.29469" height="0.314285" fill="#808184"/>
<rect x="82.9353" y="17.9536" width="9.35397" height="1.45357" fill="#808184"/>
<rect x="82.0171" y="18.7" width="12.2206" height="2.16325" fill="#808184"/>
<rect x="83.6229" y="17.6393" width="8.58936" height="0.104763" fill="#808184"/>
<rect x="92.1742" y="16.1465" width="0.102936" height="1.53214" fill="#808184"/>
<path fill-rule="evenodd" clip-rule="evenodd" d="M93.4535 17.6748H81.719H81.6662H81.1376V18.667H93.6649V17.6748H93.5064H93.4535Z" fill="#808184"/>
<path fill-rule="evenodd" clip-rule="evenodd" d="M14.8698 8.64286V8.76072C14.8698 8.76072 14.9082 8.87857 14.8698 8.87857C12.7608 8.87857 10.6135 8.91786 8.50451 9.11429C6.1271 9.35 3.71134 9.74286 1.52565 10.7643C1.37227 10.8429 0.797089 11.1179 0.797089 11.1179C0.797089 11.1179 0.413635 10.5286 0.336945 10.2536C0.298599 10.0179 0.260254 9.66429 0.260254 9.31072C0.260254 8.87857 0.260254 8.48572 0.260254 8.48572H14.8698L14.8315 8.60357V8.64286H14.8698Z" fill="#A6A8AB"/>
</svg>
