<svg width="21" height="22" viewBox="0 0 21 22" fill="none" xmlns="http://www.w3.org/2000/svg">
<path fill-rule="evenodd" clip-rule="evenodd" d="M10.239 0.650299C7.93805 0.650299 5.67549 1.47357 3.91146 2.9633C1.84064 4.68824 0.575135 7.15806 0.306695 9.86309C0.0382551 12.5681 0.843574 15.2339 2.53091 17.3509C4.44834 19.7423 7.24778 21.0752 10.2773 21.0752C12.5782 21.0752 14.8408 20.252 16.6048 18.7622C20.8615 15.1947 21.4751 8.72619 17.9854 4.37462C16.0679 2.02242 13.2302 0.650299 10.239 0.650299Z" fill="#2A2C30"/>
<path opacity="0.9" fill-rule="evenodd" clip-rule="evenodd" d="M15.5695 17.5077C11.9647 20.5264 6.6726 19.9775 3.71976 16.3316C0.766921 12.6465 1.3038 7.23645 4.87021 4.257C8.47498 1.23834 13.7671 1.78719 16.7199 5.4331C19.6728 9.07901 19.1742 14.4891 15.5695 17.5077Z" fill="#ED1637"/>
<path opacity="0.09" fill-rule="evenodd" clip-rule="evenodd" d="M3.71976 16.2532C0.766921 12.5681 1.3038 7.15804 4.87021 4.13939C8.47498 1.12073 13.7671 1.66957 16.7199 5.31549" fill="#EFF3F5"/>
</svg>
