<svg width="20" height="20" viewBox="0 0 20 20" fill="none" xmlns="http://www.w3.org/2000/svg">
<path fill-rule="evenodd" clip-rule="evenodd" d="M0.435974 2.18404C0 3.03969 0 4.15979 0 6.4V13.6C0 15.8402 0 16.9603 0.435974 17.816C0.819467 18.5686 1.43139 19.1805 2.18404 19.564C3.03969 20 4.15979 20 6.4 20H13.6C15.8402 20 16.9603 20 17.816 19.564C18.5686 19.1805 19.1805 18.5686 19.564 17.816C20 16.9603 20 15.8402 20 13.6V6.4C20 4.15979 20 3.03969 19.564 2.18404C19.1805 1.43139 18.5686 0.819467 17.816 0.435974C16.9603 0 15.8402 0 13.6 0H6.4C4.15979 0 3.03969 0 2.18404 0.435974C1.43139 0.819467 0.819467 1.43139 0.435974 2.18404ZM15.8281 6.70983C16.3852 6.65321 16.9427 6.51224 17.5 6.2865C17.0985 6.83937 16.613 7.31059 16.0436 7.69974C16.0497 7.77879 16.0527 7.89722 16.0527 8.05523C16.0527 8.78886 15.9388 9.52082 15.7111 10.2516C15.4833 10.9824 15.1373 11.6834 14.6729 12.3548C14.2085 13.0263 13.6556 13.6202 13.0145 14.1364C12.3732 14.6528 11.6002 15.0647 10.6952 15.3722C9.79048 15.6797 8.82265 15.8333 7.79194 15.8333C6.16786 15.8333 4.68169 15.4243 3.33333 14.6063C3.54307 14.6289 3.77676 14.64 4.03449 14.64C5.38285 14.64 6.58436 14.2507 7.63902 13.4722C7.0098 13.4607 6.44644 13.2789 5.94907 12.9261C5.4517 12.5735 5.11011 12.1235 4.92431 11.5763C5.12203 11.6043 5.30485 11.6184 5.47266 11.6184C5.73028 11.6184 5.98504 11.5874 6.23671 11.5254C5.56556 11.3956 5.00971 11.0812 4.56927 10.5817C4.12882 10.0822 3.9086 9.50254 3.9086 8.84236V8.80849C4.31606 9.02291 4.75352 9.13863 5.22099 9.15557C4.82546 8.90728 4.51079 8.58286 4.27711 8.18228C4.04332 7.7817 3.92648 7.34715 3.92648 6.87885C3.92648 6.38228 4.05832 5.92239 4.32201 5.49927C5.04711 6.34 5.92954 7.01286 6.96931 7.51794C8.00907 8.02292 9.1222 8.30361 10.3088 8.36002C10.2608 8.14561 10.2369 7.9368 10.2369 7.73371C10.2369 6.97764 10.52 6.33304 11.0863 5.7998C11.6528 5.26657 12.3374 5 13.1404 5C13.9794 5 14.6864 5.28786 15.2618 5.86338C15.915 5.74485 16.5292 5.52482 17.1047 5.2033C16.8829 5.85216 16.4574 6.35434 15.8281 6.70983Z" fill="#8D8D8E"/>
</svg>
